# xmcd CD database file generated by OrangeCD 6.5
#
# Track frame offsets:
#	150
#	13872
#	28275
#	46435
#	60435
#	75407
#	90507
#	104422
#	126557
#	139250
#	163035
#	182372
#
# Disc length: 2666 seconds
#
# Revision: 7
# Processed by: cddbd v1.5.2PL0 Copyright (c) Steve Scherf et al.
# Submitted via: OrangeCD 6.5
#
DISCID=9c0a680c
DTITLE=Pirates Of the Mississippi - Best Of...
DYEAR=1994
DGENRE=Country
TTITLE0=Honky Tonk Blues
TTITLE1=Rollin' Home
TTITLE2=Feed Jake
TTITLE3=Speak Of The Devil
TTITLE4=Fighting For You
TTITLE5=Til I'm Holding You Again
TTITLE6=Too Much
TTITLE7=A Street Man Named Desire
TTITLE8=Dream You
TTITLE9=Jolly Roger/Pirates Of The Mississippi
TTITLE10=Dream You (Dance Mix)
TTITLE11=Pop From The Top (Dance Mix)
EXTD=
EXTT0=
EXTT1=
EXTT2=
EXTT3=
EXTT4=
EXTT5=
EXTT6=
EXTT7=
EXTT8=
EXTT9=
EXTT10=
EXTT11=
PLAYORDER=
